<?xml version="1.0" standalone="no"?>
<!DOCTYPE svg PUBLIC "-//W3C//DTD SVG 20010904//EN"
 "http://www.w3.org/TR/2001/REC-SVG-20010904/DTD/svg10.dtd">
<svg version="1.0" xmlns="http://www.w3.org/2000/svg"
 width="1200.000000pt" height="1200.000000pt" viewBox="0 0 1200.000000 1200.000000"
 preserveAspectRatio="xMidYMid meet">
<metadata>
Created by potrace 1.14, written by Peter Selinger 2001-2017
</metadata>
<g transform="translate(0.000000,1200.000000) scale(0.100000,-0.100000)"
fill="#000000" stroke="none">
<path d="M5089 8208 c-11 -130 -22 -326 -23 -391 -1 -65 1 -70 32 -98 59 -53
159 -41 193 24 10 17 17 75 24 187 2 30 6 106 10 168 l7 112 -41 0 c-41 0 -41
0 -42 -37 0 -21 -2 -60 -4 -88 -2 -27 -6 -95 -9 -150 -10 -166 -12 -175 -52
-175 -27 0 -43 27 -38 69 1 15 5 76 8 136 4 61 9 142 12 180 l6 71 -41 2 c-28
2 -41 -1 -42 -10z"/>
<path d="M4705 8200 c-100 -15 -120 -61 -95 -225 6 -38 13 -90 16 -115 16
-145 46 -190 128 -190 56 0 91 18 113 58 20 37 22 57 9 142 -4 25 -11 79 -17
120 -20 148 -25 163 -63 190 -31 23 -48 27 -91 20z m44 -84 c7 -8 14 -31 16
-52 2 -22 4 -39 5 -39 1 0 3 -9 4 -20 2 -11 6 -42 10 -70 11 -67 17 -126 17
-150 0 -25 -26 -44 -51 -38 -25 7 -26 11 -46 153 -4 30 -8 57 -9 60 -1 3 -5
36 -10 74 -7 61 -6 71 11 83 23 17 39 17 53 -1z"/>
<path d="M5580 8082 c-11 -43 -23 -85 -25 -95 -2 -9 -22 -83 -44 -162 -23 -80
-41 -152 -41 -159 0 -8 17 -18 38 -23 l38 -10 18 76 c37 149 33 141 65 130 45
-16 46 -23 17 -129 -26 -92 -22 -104 42 -116 16 -3 22 0 22 14 0 10 9 54 20
98 21 80 20 138 -3 148 -7 3 -2 8 11 12 53 16 94 173 56 215 -25 28 -40 35
-122 58 l-70 19 -22 -76z m142 -45 c9 -14 -1 -64 -19 -99 -23 -47 -92 -31 -73
16 5 11 14 41 20 64 11 41 13 43 38 37 15 -4 30 -12 34 -18z"/>
<path d="M4284 8097 l-32 -12 68 -204 c67 -199 68 -203 49 -222 -10 -10 -25
-19 -33 -19 -12 0 -12 -6 -3 -35 12 -39 19 -41 71 -20 27 11 42 26 52 52 16
36 15 40 -11 133 -23 83 -114 334 -121 336 -5 1 -23 -3 -40 -9z"/>
<path d="M6037 7901 c-27 -53 -79 -156 -117 -230 -62 -122 -67 -136 -52 -146
44 -30 46 -28 128 132 43 85 83 157 88 160 5 3 7 2 4 -3 -5 -7 -39 -151 -63
-264 -2 -8 -8 -34 -13 -56 -9 -41 -9 -42 26 -58 19 -10 38 -13 43 -9 16 17
229 436 229 450 0 11 -48 35 -58 29 -4 -2 -36 -61 -71 -130 -36 -69 -66 -124
-67 -123 -2 2 39 187 55 242 15 55 17 52 -36 78 l-48 24 -48 -96z"/>
<path d="M3604 7763 c-69 -34 -85 -116 -36 -184 34 -47 74 -66 168 -80 78 -12
119 -34 134 -73 5 -14 3 -27 -8 -38 -21 -25 -49 -22 -68 7 -20 31 -22 31 -59
1 l-30 -24 37 -36 c63 -61 118 -60 179 4 30 31 36 44 34 73 -6 71 -56 131
-129 152 -27 8 -59 15 -70 15 -69 0 -136 43 -136 85 0 36 47 46 71 17 22 -27
27 -27 63 1 l28 23 -41 37 c-46 41 -84 47 -137 20z"/>
<path d="M6499 7602 c-84 -76 -188 -168 -261 -231 l-38 -33 31 -25 30 -26 33
32 c17 17 36 31 41 31 4 0 23 -11 41 -25 l34 -26 -25 -39 c-14 -22 -25 -43
-25 -48 0 -4 13 -18 29 -30 l30 -22 54 93 c30 50 67 115 82 142 15 28 31 55
35 60 5 6 23 37 40 70 18 33 40 68 48 78 8 9 11 17 6 17 -5 0 -24 14 -43 30
-18 17 -39 30 -45 30 -6 -1 -49 -36 -97 -78z m59 -55 c-7 -13 -35 -59 -62
-104 l-50 -81 -28 21 -29 22 88 82 c48 46 89 83 91 83 1 0 -3 -10 -10 -23z"/>
<path d="M3281 7483 l-23 -27 24 -21 c102 -85 102 -85 120 -68 16 14 14 19
-30 78 -26 35 -51 64 -57 64 -5 0 -21 -11 -34 -26z"/>
<path d="M6784 7273 c-76 -64 -163 -136 -193 -162 -29 -25 -57 -49 -62 -52 -5
-3 10 -28 33 -55 24 -28 55 -65 70 -82 l28 -33 29 22 30 22 -40 50 c-22 28
-38 54 -37 58 2 4 75 67 163 141 88 73 162 137 163 141 2 4 -8 21 -21 36 l-24
28 -139 -114z"/>
<path d="M3050 7217 c-19 -28 -37 -54 -40 -57 -3 -3 -16 -19 -28 -37 l-23 -32
53 -39 c234 -171 370 -264 377 -256 17 18 121 167 121 173 0 4 -13 14 -29 24
l-29 17 -41 -55 c-23 -30 -43 -55 -46 -55 -2 0 -10 6 -17 13 -7 6 -32 25 -55
41 -24 16 -43 33 -43 39 0 6 11 25 25 43 31 41 31 48 -2 69 -29 20 -32 18 -74
-46 l-16 -24 -57 39 c-31 21 -56 39 -56 40 0 1 18 27 41 57 l40 54 -26 23
c-14 12 -29 22 -33 22 -4 0 -23 -24 -42 -53z"/>
<path d="M7116 6975 c-62 -22 -105 -74 -122 -147 -1 -5 -3 -10 -4 -13 -1 -3
-3 -8 -4 -12 -1 -5 -6 -23 -10 -40 -9 -38 -60 -85 -89 -81 -28 4 -45 33 -31
55 9 14 18 21 53 40 2 1 -7 18 -18 37 l-22 35 -34 -22 c-61 -40 -80 -99 -50
-157 39 -76 121 -93 194 -40 45 33 71 79 96 172 17 62 51 98 90 98 21 0 35
-17 35 -40 0 -5 -12 -20 -26 -33 -25 -24 -25 -25 -10 -56 16 -30 17 -31 46
-16 79 41 88 138 18 201 -32 29 -66 35 -112 19z"/>
<path d="M2761 6723 l-18 -37 126 -59 c69 -32 173 -81 230 -108 57 -27 107
-49 112 -49 4 0 22 30 39 68 17 37 38 79 46 94 14 26 14 28 -16 43 -17 9 -34
13 -39 11 -5 -3 -20 -30 -34 -60 l-26 -55 -73 36 c-76 37 -161 76 -265 124
l-63 28 -19 -36z"/>
<path d="M2674 6405 c-23 -15 -50 -65 -58 -105 -2 -14 -8 -39 -11 -57 -8 -37
-40 -25 288 -108 141 -36 210 -49 212 -41 3 6 6 24 7 39 3 25 -2 30 -37 41
-22 8 -66 19 -98 26 l-58 13 7 57 c6 50 4 59 -20 87 -43 51 -186 81 -232 48z
m144 -86 c28 -9 32 -15 32 -45 0 -40 -4 -41 -96 -18 -63 16 -65 18 -59 43 11
44 33 47 123 20z"/>
<path d="M6355 6336 c-103 -18 -166 -42 -247 -95 -89 -59 -121 -88 -143 -132
-10 -19 -21 -36 -24 -39 -3 -3 -19 -45 -36 -95 -24 -74 -29 -106 -29 -180 1
-121 7 -157 43 -251 27 -71 40 -89 106 -152 41 -40 92 -79 113 -88 64 -28 205
-74 225 -74 17 0 18 -2 6 -17 -15 -17 -21 -215 -8 -228 4 -3 25 -6 47 -7 70
-1 67 13 68 -305 0 -158 -2 -296 -4 -306 -4 -16 -13 -18 -54 -15 -62 6 -65 0
-67 -135 -2 -96 -2 -97 24 -107 35 -13 924 -13 945 0 12 8 15 38 17 157 1 81
2 159 2 173 1 42 -1 43 -146 40 -91 -2 -95 -5 -97 -80 l-1 -34 -149 1 c-104 0
-150 4 -156 12 -4 7 -8 38 -9 70 -2 79 5 83 136 83 60 0 114 5 121 10 8 7 12
43 12 113 0 85 -3 104 -16 109 -9 3 -62 6 -119 6 -128 0 -132 3 -133 98 0 38
3 73 6 79 4 6 69 13 145 16 135 5 138 5 146 -16 5 -12 5 -34 1 -48 -14 -47 0
-54 115 -57 102 -4 105 -3 114 20 10 26 11 290 1 327 l-6 25 -430 -1 c-251 0
-392 2 -339 7 296 24 496 184 540 431 27 156 13 292 -40 385 -15 27 -37 67
-49 88 -27 50 -121 132 -187 162 -119 55 -295 75 -444 50z m268 -280 c80 -46
129 -115 145 -204 25 -139 -32 -272 -144 -338 -39 -23 -56 -27 -123 -26 -98 1
-171 28 -229 83 -64 59 -86 116 -86 214 0 165 88 269 248 293 81 13 143 5 189
-22z"/>
<path d="M4539 6333 c-32 -5 -37 -24 -33 -120 6 -112 6 -113 68 -113 34 0 56
-5 59 -13 2 -7 5 -62 6 -122 1 -61 3 -186 5 -280 1 -93 -1 -178 -6 -187 -7
-14 -21 -18 -63 -18 -42 0 -55 -4 -59 -17 -9 -30 -11 -207 -3 -220 6 -10 72
-13 272 -13 242 0 265 1 273 18 9 18 7 194 -2 218 -4 9 -21 14 -55 14 l-49 0
-1 139 c0 77 -1 143 -2 148 -7 39 19 45 41 9 8 -13 30 -41 48 -62 18 -22 54
-69 80 -106 26 -37 100 -136 164 -221 l118 -155 109 0 c60 0 118 2 130 5 32 8
34 31 33 313 0 80 -1 159 -1 175 0 17 0 100 -1 185 -1 85 -2 161 -1 168 1 8
18 12 49 12 73 0 75 4 76 123 1 58 -3 109 -7 114 -10 9 -446 17 -493 8 -25 -4
-34 -12 -38 -33 -9 -44 -11 -196 -3 -209 5 -8 24 -10 55 -6 l48 5 0 -103 c0
-57 4 -127 8 -155 6 -41 5 -52 -7 -57 -18 -7 -76 54 -132 139 -34 52 -94 129
-148 189 -10 10 -39 51 -65 89 -26 39 -63 87 -83 108 l-36 38 -164 -1 c-90 -1
-176 -4 -190 -6z"/>
<path d="M7074 6328 c-4 -6 -9 -53 -10 -103 -4 -114 4 -128 72 -129 l48 -1 37
-90 c77 -187 98 -242 102 -265 5 -29 59 -174 89 -240 11 -25 21 -55 22 -67 0
-13 3 -23 6 -23 3 0 6 -10 7 -22 2 -22 14 -57 39 -114 12 -28 20 -32 66 -37
69 -9 172 -9 193 -1 19 8 33 39 41 93 3 20 16 59 28 86 13 28 45 107 72 178
27 70 54 127 60 127 6 0 44 -87 84 -192 40 -106 81 -213 90 -238 17 -43 20
-45 58 -46 21 -1 76 -4 121 -8 l81 -7 20 43 c11 24 20 51 20 61 0 10 11 42 24
70 13 29 47 120 75 202 28 83 63 174 77 204 14 29 29 76 35 104 11 59 67 186
83 189 6 0 31 1 56 2 44 1 45 2 43 31 -2 35 -2 116 0 165 l2 35 -274 3 c-174
1 -278 -1 -286 -8 -8 -7 -11 -41 -10 -107 2 -54 3 -101 4 -105 0 -3 24 -11 51
-18 54 -13 58 -21 34 -68 -8 -17 -17 -43 -20 -58 -21 -117 -52 -224 -64 -224
-5 0 -22 42 -39 93 -16 50 -36 109 -45 130 -9 20 -14 37 -12 37 3 0 -9 37 -25
83 -17 45 -42 117 -57 159 l-25 77 -109 0 c-125 0 -118 6 -158 -129 -12 -41
-37 -122 -55 -180 -18 -58 -43 -142 -55 -188 -12 -45 -26 -84 -30 -87 -9 -6
-24 31 -40 95 -6 25 -20 70 -30 100 -10 30 -25 79 -34 107 l-15 53 40 -4 c60
-6 76 16 73 101 -3 73 -9 116 -19 133 -9 15 -532 14 -541 -2z"/>
<path d="M2603 5924 c-40 -20 -62 -66 -58 -120 4 -54 28 -90 68 -103 31 -9
184 -20 312 -22 109 -2 149 33 149 127 0 42 -4 58 -24 79 -33 35 -71 42 -255
49 -134 5 -165 3 -192 -10z m242 -75 c122 -3 155 -12 155 -44 0 -42 -17 -46
-186 -39 -88 4 -167 11 -176 16 -10 5 -18 20 -18 34 0 30 29 44 85 39 22 -2
85 -5 140 -6z"/>
<path d="M3035 5520 c-32 -6 -33 -9 -24 -105 l4 -40 -74 -12 c-41 -7 -76 -11
-78 -9 -2 2 -6 27 -10 55 l-6 52 -35 -6 c-20 -3 -37 -7 -39 -9 -2 -1 1 -23 6
-49 8 -45 5 -61 -14 -63 -118 -15 -115 -15 -116 3 -1 31 -9 73 -19 97 -7 19
-14 22 -40 18 -35 -5 -35 0 -10 -157 6 -33 10 -63 10 -66 0 -3 35 0 78 7 42 6
95 15 117 18 48 7 114 17 135 21 8 1 53 8 100 15 l86 13 -14 86 c-7 47 -14 96
-16 109 -4 29 -5 29 -41 22z"/>
<path d="M4496 5188 c-3 -13 -6 -62 -6 -110 0 -101 13 -120 79 -111 37 5 37 5
64 -55 36 -79 89 -221 132 -349 18 -55 45 -125 58 -155 26 -56 35 -83 42 -118
10 -51 49 -161 60 -170 7 -6 64 -13 127 -17 133 -7 140 -3 157 77 6 28 40 124
75 213 35 89 66 170 69 180 15 43 34 14 87 -133 17 -47 39 -103 49 -125 10
-22 28 -70 40 -106 32 -97 30 -96 157 -102 61 -3 116 -2 122 2 7 4 21 37 31
72 10 36 25 78 34 95 8 16 42 109 75 205 33 97 69 194 80 215 11 22 25 65 32
97 6 32 26 86 44 120 31 59 34 62 67 59 60 -5 78 4 73 38 -2 16 -6 43 -8 59
-2 15 -1 46 3 67 14 80 34 75 -282 72 l-282 -3 0 -110 0 -109 50 -14 c28 -8
51 -16 53 -17 2 -2 -4 -20 -13 -41 -9 -22 -18 -47 -20 -57 -2 -10 -6 -26 -9
-35 -3 -9 -7 -28 -10 -42 -20 -101 -39 -161 -50 -157 -6 2 -25 46 -42 98 -16
52 -33 101 -37 109 -3 8 -15 44 -26 80 -11 36 -37 115 -58 175 l-39 110 -109
0 -110 0 -18 -37 c-10 -20 -20 -45 -22 -55 -7 -33 -56 -198 -64 -218 -5 -11
-14 -38 -20 -60 -6 -22 -17 -62 -26 -90 -8 -27 -18 -66 -23 -85 -10 -44 -23
-41 -39 8 -61 190 -73 230 -77 252 -2 14 -7 32 -11 41 -5 13 2 16 40 16 25 0
49 3 53 7 9 10 9 195 0 219 -7 16 -30 17 -277 17 l-269 0 -6 -22z"/>
<path d="M2800 5029 c-67 -23 -110 -67 -110 -111 0 -36 41 -168 52 -168 8 0
467 168 479 176 8 4 -7 49 -22 68 -4 4 -44 -6 -89 -23 -103 -39 -117 -39 -125
-1 -9 40 -58 80 -98 79 -18 0 -57 -9 -87 -20z m102 -71 c8 -7 18 -22 20 -34 5
-18 -4 -24 -67 -46 l-73 -26 -9 22 c-16 36 -4 54 50 75 63 24 60 24 79 9z"/>
<path d="M7711 4088 c-121 -17 -264 -82 -351 -160 -37 -33 -121 -178 -104
-178 3 0 -1 -10 -8 -22 -29 -54 -41 -203 -24 -305 7 -42 29 -118 50 -166 20
-50 143 -170 204 -201 104 -52 211 -79 333 -84 104 -4 125 -2 209 22 51 15
116 39 144 53 55 28 162 130 186 178 8 17 17 32 20 35 24 24 38 67 45 143 2
26 7 52 10 58 8 11 7 143 0 179 -2 14 -7 39 -10 55 -6 28 -43 114 -55 125 -3
3 -12 18 -20 34 -25 48 -87 113 -149 154 -109 73 -304 105 -480 80z m247 -277
c44 -22 117 -98 134 -139 17 -42 19 -52 22 -122 3 -103 -25 -179 -91 -241 -59
-56 -97 -72 -178 -72 -116 0 -203 39 -262 117 -107 141 -59 374 92 445 87 41
216 46 283 12z"/>
<path d="M4509 4083 c-1 -5 -1 -11 0 -16 2 -13 1 -141 -2 -182 l-2 -40 64 -5
64 -5 -1 -270 c-1 -148 -1 -287 -1 -307 l-1 -38 -54 0 c-32 0 -58 -5 -62 -12
-12 -18 -7 -183 5 -206 11 -20 19 -21 248 -21 131 -1 245 3 253 8 17 11 25
148 12 196 -8 27 -13 30 -55 33 -50 3 -52 6 -47 72 1 26 41 65 97 95 32 18 34
18 54 -1 12 -10 39 -41 60 -69 21 -27 56 -70 79 -95 l40 -45 -6 -87 -6 -88 27
-10 c17 -6 110 -9 239 -8 l211 3 3 95 c4 140 5 139 -75 142 -67 3 -67 3 -101
48 -19 25 -41 54 -51 65 -9 11 -39 52 -66 90 -27 39 -71 94 -99 124 -46 50
-49 55 -32 65 11 6 50 38 88 71 189 163 177 155 221 156 59 1 79 6 88 21 10
15 6 199 -5 216 -11 18 -530 17 -544 -1 -12 -14 -13 -189 -2 -207 6 -10 24
-16 53 -19 18 -2 4 -20 -40 -52 -27 -18 -82 -62 -123 -96 -105 -88 -105 -88
-105 47 l0 85 40 3 c22 2 42 8 46 13 3 6 3 31 -1 57 -4 26 -6 73 -5 105 1 46
-2 60 -16 68 -21 11 -488 12 -490 2z"/>
<path d="M5880 4081 c-22 -6 -25 -13 -28 -56 -2 -28 -1 -78 3 -112 l7 -63 58
0 c52 0 58 -2 61 -22 3 -13 4 -151 4 -308 l0 -285 -55 -3 c-30 -2 -59 -7 -64
-12 -14 -14 -19 -210 -5 -226 9 -11 63 -14 275 -14 l264 0 5 23 c4 17 1 186
-4 219 -1 4 -24 8 -53 10 l-52 3 -2 155 c-1 85 0 158 3 162 5 10 33 -2 33 -14
0 -6 19 -33 43 -61 23 -27 60 -76 82 -108 57 -83 270 -362 286 -376 16 -13
253 -13 266 0 4 5 8 197 7 428 l-1 419 41 1 c54 1 79 11 82 35 3 16 4 132 3
186 0 9 -10 19 -22 22 -31 8 -504 3 -512 -6 -4 -4 -8 -60 -9 -125 l-1 -118 53
3 52 4 1 -99 c0 -97 6 -167 14 -190 2 -6 -2 -17 -10 -23 -11 -9 -19 -7 -37 12
-42 44 -73 83 -109 138 -19 30 -69 96 -110 145 -41 50 -89 113 -107 140 -17
28 -46 66 -64 87 l-33 36 -170 0 c-94 0 -181 -3 -195 -7z"/>
<path d="M8414 4068 c-4 -13 -8 -60 -9 -105 -3 -101 11 -123 72 -116 48 5 51
2 95 -112 20 -49 39 -99 43 -110 5 -11 9 -22 10 -25 1 -3 8 -21 17 -41 9 -20
19 -51 23 -70 4 -19 25 -79 47 -134 58 -146 67 -171 73 -204 3 -17 16 -59 29
-94 26 -70 12 -64 171 -73 118 -7 119 -7 141 87 8 34 21 76 28 93 38 84 60
137 83 206 26 75 39 100 53 100 3 0 23 -42 43 -92 80 -206 110 -285 125 -331
18 -55 14 -53 158 -61 75 -4 104 -3 112 7 5 6 17 39 27 72 9 33 27 83 40 110
12 28 44 113 70 190 26 77 58 165 72 195 13 30 31 84 39 119 13 53 54 152 71
171 3 3 28 5 56 5 l52 0 1 100 c0 55 -1 108 -3 118 -4 16 -26 17 -278 17 -251
0 -275 -1 -283 -17 -5 -10 -8 -60 -7 -112 l1 -93 37 -13 c20 -7 37 -11 37 -8
0 2 9 -1 20 -7 19 -10 19 -12 3 -43 -9 -18 -18 -36 -19 -42 -2 -5 -12 -50 -23
-100 -28 -126 -35 -148 -49 -153 -6 -2 -14 9 -17 25 -4 15 -10 37 -15 48 -18
43 -62 171 -65 190 -2 11 -15 52 -30 90 -14 39 -31 86 -36 105 -30 105 -44
127 -74 120 -5 -1 -50 -2 -99 -2 -79 0 -89 -2 -93 -19 -3 -10 -9 -19 -14 -19
-5 0 -8 -3 -7 -7 1 -5 -6 -35 -16 -68 -10 -33 -24 -80 -31 -105 -7 -25 -25
-83 -40 -130 -15 -47 -35 -115 -45 -151 -23 -89 -29 -97 -46 -64 -8 15 -14 33
-14 41 0 7 -14 55 -31 106 -32 98 -34 105 -44 154 -7 32 -7 32 34 31 23 -1 47
5 54 12 16 16 14 196 -3 216 -10 12 -58 15 -276 15 l-263 0 -7 -22z"/>
</g>
</svg>
